<?xml version="1.0" encoding="UTF-8" standalone="no"?><!DOCTYPE svg PUBLIC "-//W3C//DTD SVG 1.1//EN" "http://www.w3.org/Graphics/SVG/1.1/DTD/svg11.dtd"><svg width="100%" height="100%" viewBox="0 0 28475 29480" version="1.1" xmlns="http://www.w3.org/2000/svg" xmlns:xlink="http://www.w3.org/1999/xlink" xml:space="preserve" xmlns:serif="http://www.serif.com/" style="fill-rule:evenodd;clip-rule:evenodd;stroke-linejoin:round;stroke-miterlimit:2;"><g><path d="M20011.5,13342.1c-320.519,-1244.44 -977.853,-2275.82 -1981.09,-3078.73c-975.908,-780.935 -2095.2,-1193.1 -3343.53,-1251.82c-378.668,-17.843 -755.794,4.866 -1130.41,65.126c-529.193,84.914 -1037.54,237.629 -1523.35,464.555c-1511.1,706.159 -2628.78,2012.72 -3092.68,3615.71c-99.837,344.767 -166.017,695.858 -198.457,1053.44c-22.871,252.554 -32.928,505.269 -19.546,758.634c6.65,126.358 15.571,252.634 20.681,378.991c7.462,182.076 72.749,340.144 190.023,477.938c50.771,59.692 113.381,102.27 186.86,129.276c88.077,32.28 176.398,34.875 269.91,22.223c200.809,-27.007 349.227,-166.341 394.238,-341.603c14.113,-54.501 24.251,-110.868 27.981,-166.909c7.462,-111.354 8.597,-222.951 13.382,-334.467c8.191,-191.321 18.41,-382.48 25.628,-573.8c9.327,-245.254 36.982,-488.238 85.401,-728.625c119.626,-593.183 344.28,-1143.71 682.884,-1645.49c557.903,-826.759 1305.26,-1413.62 2241.59,-1759.28c407.459,-150.364 828.461,-237.142 1261.14,-266.664c315.002,-21.491 629.112,-9.408 942.006,34.631c351.172,49.392 692.046,137.63 1022.22,266.258c1640.78,638.927 2805.42,2175.74 2911.99,4014.33c15.328,264.8 6.081,529.357 -25.711,793.182c-39.252,326.925 -111.84,645.901 -219.545,956.93c-191.97,554.254 -480.125,1052.95 -863.092,1497.07c-9.408,10.705 -20.194,20.276 -32.683,32.603c-7.381,-14.922 -12.816,-25.06 -17.519,-35.523c-91.97,-205.027 -184.022,-410.054 -275.911,-615.162c-795.452,-1776.14 -1591.31,-3552.13 -2386.04,-5328.68c-103.891,-232.442 -201.376,-467.799 -302.835,-701.375c-14.598,-33.334 -32.198,-66.017 -52.88,-95.945c-103.811,-149.877 -275.992,-220.678 -448.983,-181.345c-176.398,40.145 -289.536,155.473 -360.257,317.272c-10.058,22.872 -18.411,46.474 -28.711,69.101c-570.556,1243.79 -1140.95,2487.58 -1712.88,3730.8c-28.791,62.53 -41.687,124.979 -41.363,192.618c1.622,378.993 337.792,587.751 639.98,542.738c132.928,-19.707 243.876,-84.914 349.633,-161.961c10.3,-7.624 19.464,-18.735 25.304,-30.089c37.144,-72.587 75.588,-144.524 109.245,-218.734c360.014,-794.561 719.217,-1589.61 1078.74,-2384.41c7.056,-15.491 15.491,-30.413 26.846,-52.473c10.542,22.547 17.76,37.227 24.249,52.149c303.972,695.698 608.431,1391.07 911.35,2087.17c122.95,282.236 255.227,560.661 353.687,852.955c6.081,17.923 11.841,35.847 19.788,60.34c-63.017,-21.898 -115.894,-41.687 -169.746,-58.8c-229.522,-73.073 -465.124,-117.598 -704.539,-138.36c-132.682,-11.598 -266.096,-17.6 -399.104,-16.302c-217.031,2.271 -431.304,33.657 -644.278,74.938c-304.054,58.962 -597.645,149.229 -874.367,289.617c-208.758,105.758 -405.026,231.143 -580.45,387.184c-34.713,30.9 -66.991,64.882 -97.729,99.755c-22.466,25.468 -40.713,56.286 -20.195,90.917c19.951,33.82 55.231,33.9 89.051,29.602c28.061,-3.569 55.961,-9.083 83.373,-15.815c226.358,-55.555 452.147,-114.03 683.127,-148.094c235.845,-34.791 471.692,-61.475 711.431,-48.418c379.154,20.682 740.141,110.137 1084.1,269.261c351.093,162.449 673.231,371.45 975.338,612.08c239.254,190.43 461.231,398.7 654.822,636.087c62.206,76.155 117.6,156.447 158.475,247.201c58.637,130.656 123.033,258.798 209.244,374.369c2.757,3.731 3.569,8.84 7.056,18.411c-399.268,262.609 -829.355,457.498 -1290.02,583.289c-742.005,202.674 -1489.37,219.949 -2239.56,49.309c-556.281,-126.438 -1070.55,-350.93 -1546.95,-672.825c8.516,-19.952 14.113,-33.659 20.195,-47.202c45.985,-101.622 92.699,-202.918 138.036,-304.865c75.101,-168.693 150.445,-337.305 223.438,-506.89c28.142,-65.125 33.576,-133.819 24.087,-205.433c-24.655,-186.779 -117.518,-323.68 -289.536,-401.863c-111.841,-50.851 -229.683,-75.181 -354.174,-70.883c-174.29,6.002 -430.33,157.987 -470.719,352.714c-3.975,19.141 -15.004,36.902 -23.439,54.987c-69.91,151.095 -140.307,301.946 -210.137,453.04c-59.366,128.385 -114.273,259.122 -178.101,385.237c-82.481,163.096 -101.864,332.114 -67.639,509.566c23.681,123.195 79.966,231.953 146.553,336.657c65.611,103 136.495,202.026 230.735,280.615c55.961,46.714 117.762,86.779 178.507,127.492c1102.59,738.682 2316.53,1064.63 3640.53,978.908c329.682,-21.25 655.228,-73.236 975.014,-156.609c1457.65,-380.289 2606.15,-1196.51 3428.93,-2458.62c570.232,-874.609 867.879,-1840.38 910.539,-2884.25c22.303,-548.009 -32.443,-1088.15 -169.18,-1618.97Z" style="fill:#fff;fill-rule:nonzero;"/><path d="M26845.9,24557.8c-955.793,845.655 -2365.92,1246.22 -4060.48,1246.14c-779.637,-0.081 -1620.18,-86.212 -2503.23,-251.58c645.251,-1009.16 1199.42,-2179.47 1636.89,-3472.32c445.982,-1318.16 763.902,-2747.51 947.113,-4230.47c936.087,-907.78 1779.8,-1843.46 2512.88,-2787.41c180.454,243.874 354.175,487.994 518.895,732.112c1379.63,2044.67 2135.02,3990.81 2184.58,5628.03c39.9,1319.29 -376.154,2374.28 -1236.65,3135.5Zm-8282.84,2548.56c-1277.77,1291.31 -2742.72,1977.2 -4236.31,1983.69l-21.573,0c-2036.08,0 -3912.3,-1238.27 -5380.5,-3296.33c174.289,-39.335 350.282,-81.345 528.058,-126.52c1558.47,-396.429 3173.3,-999.506 4784.56,-1778.09c1611.18,778.585 3226.01,1381.66 4784.56,1778.09c207.948,52.879 412.732,100.324 615.812,145.174c-335.196,474.936 -693.67,908.997 -1074.61,1293.99Zm-12081.2,-1330.4c-113.543,-455.553 -524.247,-793.507 -1014.92,-793.507c-472.746,0 -871.932,313.38 -1002.02,743.548c-1151.9,-153.122 -2121.56,-535.926 -2836.32,-1168.2c-860.497,-761.228 -1276.47,-1816.21 -1236.57,-3135.5c49.472,-1637.22 804.942,-3583.35 2184.58,-5628.03c164.719,-244.118 338.441,-488.238 518.975,-732.112c740.872,954.171 1594.64,1899.99 2542.89,2816.85c364.637,2735.59 1187.18,5248.06 2402.01,7272.06c78.912,131.467 159.448,259.204 240.713,384.994c-622.868,120.112 -1224.65,200.81 -1799.34,239.901Zm-3905.25,-12090.8c-1379.63,-2044.6 -2135.1,-3990.73 -2184.58,-5627.94c-39.903,-1319.3 376.072,-2374.28 1236.57,-3135.51c955.874,-845.656 2366.08,-1246.14 4060.56,-1246.14c779.639,0 1620.1,86.132 2503.23,251.579c-645.252,1009 -1199.42,2179.47 -1636.89,3472.24c-446.064,1318.16 -763.986,2747.59 -947.116,4230.63c-936.084,907.698 -1779.79,1843.46 -2512.8,2787.33c-180.534,-243.874 -354.175,-487.993 -518.975,-732.192Zm7334.99,-11312.1c1277.77,-1291.23 2742.64,-1977.12 4236.23,-1983.52l21.573,-0c2036.16,-0 3912.55,1238.43 5380.74,3296.73c-174.452,39.336 -350.282,80.778 -528.302,126.116c-1558.55,396.347 -3173.38,999.426 -4784.56,1778.01c-1611.26,-778.582 -3226.1,-1381.66 -4784.56,-1778.01c-207.622,-52.798 -412.567,-101.135 -615.243,-145.904c334.954,-474.693 693.265,-908.592 1074.12,-1293.42Zm12999.2,9847.55c824.568,824.002 1570.14,1668.6 2224.24,2519.12c-648.009,842.493 -1385.39,1679.39 -2200.8,2496.09c81.182,-833.896 120.761,-1681.74 115.489,-2534.37c-5.272,-840.059 -52.31,-1669.09 -138.927,-2480.85Zm-8227.93,-6409.85c1765.76,-832.191 3497.71,-1434.3 5101.83,-1782.79c1238.92,1867.87 2158.38,4339.47 2594.39,7140.26c-666.339,-618.57 -1374.12,-1222.46 -2118.4,-1804.61c-1780.12,-1392.53 -3672.57,-2593.42 -5577.82,-3552.86Zm-6469.06,3552.86c-756.443,591.723 -1475.58,1205.67 -2151.32,1834.86c405.026,-2765.11 1290.66,-5279.2 2541.43,-7189.17c1628.05,345.416 3390.41,954.496 5187.72,1801.45c-1905.26,959.442 -3797.7,2160.33 -5577.82,3552.86Zm-2650.11,7895.25c-824.488,-824.002 -1570.14,-1668.6 -2224.16,-2519.12c647.928,-842.493 1385.39,-1679.39 2200.8,-2496.01c-81.265,833.815 -120.843,1681.58 -115.571,2534.29c5.272,840.059 52.31,1669.09 138.928,2480.84Zm8228.42,6410.1c-1765.68,832.111 -3497.79,1434.62 -5101.83,1783.2c-1239.16,-1867.95 -2158.79,-4339.71 -2594.79,-7140.91c666.258,618.568 1374.04,1222.46 2118.32,1804.61c1780.28,1392.61 3672.89,2593.58 5578.31,3553.1Zm8620.06,-5388.05c-405.107,2765.19 -1290.75,5279.2 -2541.43,7189.17c-1628.13,-345.496 -3390.49,-954.495 -5187.72,-1801.45c1905.18,-959.441 3797.54,-2160.33 5577.66,-3552.78c756.443,-591.723 1475.66,-1205.75 2151.49,-1834.94Zm-2391.47,1528.13c-1874.77,1466.58 -3843.85,2692.12 -5782.69,3645.23c-1939.32,-953.278 -3908.9,-2178.33 -5784.15,-3645.23c-868.933,-679.721 -1687.01,-1388.88 -2446.13,-2116.37c-120.519,-942.006 -187.104,-1917.59 -193.349,-2917.09c-6.246,-1005.1 51.581,-1997.48 166.665,-2963.4c766.581,-736.412 1593.83,-1454.17 2472.82,-2141.76c1875.09,-1466.82 3844.34,-2691.71 5783.34,-3644.99c1939.16,953.278 3908.49,2178.25 5783.5,3644.99c868.931,679.64 1687.01,1388.88 2446.05,2116.45c120.681,941.923 187.186,1917.51 193.43,2917.01c6.245,1005.1 -51.582,1997.47 -166.746,2963.4c-766.502,736.411 -1593.75,1454.17 -2472.74,2141.76Zm2764.7,-16133.5c12.004,0 23.763,0.488 35.767,0.488c83.05,495.453 512.65,873.309 1031.62,873.309c435.035,0 807.944,-265.367 966.092,-643.06c800.402,201.62 1486.61,537.304 2027,1015.4c860.498,761.23 1276.55,1816.21 1236.65,3135.51c-49.556,1637.21 -804.944,3583.27 -2184.58,5627.94c-164.72,244.199 -338.441,488.318 -518.976,732.192c-740.952,-954.09 -1594.8,-1899.91 -2542.89,-2816.85c-364.717,-2735.59 -1187.26,-5248.06 -2402.09,-7272.06c-78.752,-131.222 -159.124,-258.717 -240.226,-384.343c915.402,-176.399 1785.96,-268.531 2591.63,-268.531Zm3435.42,11900.9c-188.238,-279.155 -387.346,-558.148 -595.78,-836.735c208.434,-278.506 407.542,-557.58 595.78,-836.654c1420.92,-2105.74 2199.34,-4123.17 2251.08,-5834.03c42.984,-1420.18 -430.006,-2609.39 -1367.8,-3439.07c-583.124,-515.974 -1327,-883.368 -2205.5,-1101.62c0.245,-8.678 1.218,-17.276 1.218,-26.114c-0,-578.261 -468.772,-1047.03 -1047.03,-1047.03c-506.16,0 -928.379,359.041 -1025.86,836.328c-878.178,-2.758 -1837.38,98.541 -2864.05,306.082c-1611.02,-2328.21 -3643.77,-3597.71 -5793.31,-3597.71c-7.704,0 -15.734,0 -23.437,0.082c-1599.34,6.893 -3159.35,732.679 -4511.41,2099.1c-429.924,434.384 -834.95,931.297 -1212.24,1480.69c-3104.03,-611.107 -5584.39,-248.255 -7052.02,1050.2c-937.788,829.677 -1410.78,2018.88 -1367.79,3439.07c51.744,1710.86 830.084,3728.28 2251,5834.03c188.32,279.074 387.426,558.148 595.86,836.654c-208.434,278.587 -407.54,557.58 -595.86,836.735c-1420.92,2105.74 -2199.26,4123.09 -2251,5833.94c-42.984,1420.19 430.006,2609.39 1367.79,3439.15c762.606,674.611 1798.77,1096.1 3053.43,1260.33c41.119,540.629 491.886,966.823 1043.06,966.823c534.304,-0 974.366,-400.565 1038.27,-917.675c634.303,-43.309 1304.54,-135.847 2006.15,-277.533c1611.1,2328.45 3644.02,3598.03 5793.64,3598.03c7.623,0 15.734,0 23.438,-0.081c1599.26,-6.813 3159.35,-732.761 4511.49,-2099.09c429.761,-434.467 834.87,-931.382 1212,-1480.61c979.717,192.943 1897.39,289.05 2740.62,288.969c1828.38,-0 3307.03,-450.525 4311.57,-1339.16c937.79,-829.76 1410.78,-2018.97 1367.8,-3439.15c-51.744,-1710.78 -830.165,-3728.2 -2251.08,-5833.94Z" style="fill:#fff;fill-rule:nonzero;"/></g></svg>